<?xml version="1.0" encoding="UTF-8"?>
<svg id="Layer_2" data-name="Layer 2" xmlns="http://www.w3.org/2000/svg" width="75" height="75" viewBox="0 0 461.15 518.91">
  <defs>
    <style>
      .cls-1 {
        fill: none;
        stroke: #ffffff;
        stroke-miterlimit: 10;
        stroke-width: 20px;
      }

      .cls-2 {
        fill: #ffffff ;
        stroke-width: 0px;
      }
    </style>
  </defs>
  <g id="Layer_1-2" data-name="Layer 1">
    <g>
      <path class="cls-2" d="m366.59,366.63c.01,11.02-8.51,19.88-19.32,20.1-10.75.21-20.16-9.05-20.24-19.92-.08-10.66,8.92-19.91,19.56-20.12,10.94-.21,19.98,8.81,20,19.94Z"/>
      <path class="cls-2" d="m72.81,265.21h316l.25-.29c12.48,10.81,21.08,25.57,25.73,44.23,9.61,38.62,18.91,77.31,27.86,116.09,10.53,45.62-19.64,87.72-66.1,92.95-17.25,1.95-33.07-2.23-47.68-11.2-16.35-10.05-33.21-19.04-50.57-27.23-32.35-15.27-64.26-14.62-96.34.7-15.5,7.4-30.73,15.26-45.27,24.43-23.46,14.79-48.43,18.32-73.85,6.85-28.08-12.66-42.76-35.49-44.93-66.26-1.04-14.8,3.74-28.64,7.06-42.7,7.82-33.05,15.13-66.25,24.05-99.01,4.37-16,12.32-29.13,23.47-38.92l.32.36Zm276.99,3l-231.99-1-.15-.25c-25.89,5.79-42.55,21.34-48.97,47.03-9.52,38.11-18.62,76.33-27.66,114.56-5.87,24.81,4.19,49.08,26.06,61.11,19.18,10.54,38.46,8.72,56.91-2.66,19.18-11.81,39.01-22.37,59.9-30.84,32.15-13.02,64.21-12.49,96.21.83,21.44,8.92,41.47,20.44,61.58,31.95,19.57,11.21,39.85,10.82,58.46-2.28,19.14-13.47,26.78-32.95,21.8-55.62-8.85-40.31-18.64-80.43-28.9-120.41-5.74-22.38-21-36.65-43.24-42.42h-.01Z"/>
      <path class="cls-2" d="m328.53,404.61c.06,11.2-8.69,20.18-19.72,20.25-10.84.07-19.91-9.17-19.85-20.22.06-10.72,9.17-19.79,19.82-19.74,10.9.05,19.7,8.83,19.75,19.71Z"/>
      <path class="cls-2" d="m328.52,328.5c-.01,11.11-8.41,19.57-19.49,19.65-11.39.07-20.11-8.43-20.08-19.59.02-10.88,8.69-19.73,19.52-19.94,10.9-.21,20.05,8.87,20.05,19.88Z"/>
      <path class="cls-2" d="m270.93,346.71c10.73.24,19.56,9.31,19.53,20.07-.02,10.79-8.91,19.79-19.66,19.91-10.98.13-19.92-8.88-19.9-20.06.03-11.1,9.13-20.16,20.03-19.92Z"/>
      <path class="cls-2" d="m196.43,366.52c.04,28.53-23.23,51.59-52,51.56-28.84-.04-51.57-22.92-51.51-51.87.06-28.25,23.45-51.66,51.58-51.62,28.45.04,51.89,23.49,51.93,51.93Zm-51.64,29.99c16.51-.05,30.39-14.12,30.04-30.46-.36-16.59-13.69-29.43-30.46-29.34-16.88.09-30.01,13.42-29.86,30.3.14,16.42,13.62,29.54,30.28,29.5Z"/>
    </g>
    <path class="cls-1" d="m92.02,129.15c2.14-3.08,4.38-6.08,6.72-9,8.8-11.05,18.97-20.96,30.25-29.5,28.33-21.43,63.62-34.15,101.89-34.15,9.23,0,18.3.74,27.13,2.18,27.6,4.44,52.96,15.57,74.37,31.68.02.02.05.03.07.05,25.25,19.02,44.99,44.95,56.42,74.98,3.09,8.09,5.56,16.48,7.38,25.11"/>
    <path class="cls-1" d="m65.51,190.5c1.81-8.59,4.27-16.95,7.34-25,4.92-12.94,11.37-25.13,19.15-36.32"/>
    <path class="cls-1" d="m332.45,90.41c-.24.01-.49.01-.74.01"/>
    <path class="cls-1" d="m388.87,165.39c-.39.02-.77.03-1.16.03"/>
    <path class="cls-1" d="m56.88,260.5c-6.6,0-12-5.4-12-12v-46c0-6.6,5.4-12,12-12h347c6.6,0,12,5.4,12,12v46c0,6.6-5.4,12-12,12"/>
    <polyline class="cls-1" points="199.88 64.5 199.88 190.5 199.88 192.5"/>
    <line class="cls-1" x1="260.88" y1="59.5" x2="260.88" y2="187.5"/>
    <path class="cls-1" d="m128.88,90.5c-2.65,0-5.3-.16-7.94-.47C73.19,84.5,26.74,31.27,13.43,10.99c-1.11-1.69-3.74-.66-3.4,1.34,5.86,34.28,28.01,152.81,54.49,152.81"/>
    <polyline class="cls-1" points="64.88 165.5 64.92 165.44 92 129.18 92.02 129.15 98.74 120.15 120.88 90.5"/>
    <path class="cls-1" d="m332.28,90.36h.1c50.41-.08,101.31-58.13,115.35-79.51,1.11-1.69,3.74-.66,3.39,1.33-5.85,34.29-28.01,152.82-54.48,152.82"/>
    <line class="cls-1" x1="57.31" y1="260.71" x2="404.31" y2="260.71"/>
  </g>
</svg>